<svg width="352" height="352" viewBox="0 0 352 352" fill="none" xmlns="http://www.w3.org/2000/svg">
<g clip-path="url(#clip0_172_629)">
<path d="M162.095 162.667H134.965V189.778H162.095V162.667Z" fill="black"/>
<path d="M176 135.555H162.095V162.667H176V135.555Z" fill="black"/>
<path d="M134.965 135.555H107.835V162.667H134.965V135.555Z" fill="black"/>
<path d="M162.095 108.443H134.965V135.555H162.095V108.443Z" fill="black"/>
<path d="M162.095 108.443H176V54.2235H162.095V81.3352V108.443Z" fill="black"/>
<path d="M107.835 108.443H134.965V81.3352V54.2235H107.835V81.3352V108.443Z" fill="black"/>
<path d="M162.095 216.89H134.965V244.002H162.095V216.89Z" fill="black"/>
<path d="M176 189.778H162.095V216.89H176V189.778Z" fill="black"/>
<path d="M134.965 189.778H107.835V216.89H134.965V189.778Z" fill="black"/>
<path d="M162.095 27.1117V0H134.965V27.1117V54.2235H162.095V27.1117Z" fill="black"/>
<path d="M26.8096 298.225H27.1299H53.8953V324.888V325.208V352H80.7085H81.0252H107.835V325.208V324.888V298.225H134.965V324.888V325.208V352H162.095V325.208V324.888V298.225H176V244.002H162.095V271.114V298.097H134.965V271.114V244.002H107.835V271.114V298.097H81.0252H80.7085H53.9395V271.114V244.002H80.7085H81.0252H107.835V216.89H81.0252H80.7085H53.9395V189.778H80.7085H81.0252H107.835V162.667H81.0252H80.7085H53.9395V135.555H80.7085H81.0252H107.835V108.443H81.0252H80.7085H53.9395V81.3352V54.2235H80.7085H81.0252H107.835V27.1117V0H81.0252H80.7085H53.8953V27.1117V54.2235H27.1299H26.8096H0V81.3352V108.443H26.8096H27.1299H53.8953V135.555H27.1299H26.8096H0V162.667H26.8096H27.1299H53.8953V189.778H27.1299H26.8096H0V216.89H26.8096H27.1299H53.8953V244.002H27.1299H26.8096H0V271.114V298.225H26.8096Z" fill="black"/>
<path d="M324.87 162.667H352V135.555H324.87H297.744V162.667H324.87Z" fill="#FFF200"/>
<path d="M297.744 108.443H324.87H352V81.3352V54.2235H324.87H297.744V81.3352V108.443Z" fill="#FFF200"/>
<path d="M324.87 216.89H352V189.778H324.87H297.744V216.89H324.87Z" fill="#FFF200"/>
<path d="M243.484 162.667V189.778H270.614H297.744V162.667H270.614H243.484Z" fill="#FFF200"/>
<path d="M216.354 162.667H189.224V189.778H216.354V162.667Z" fill="#FFF200"/>
<path d="M243.484 135.555H216.354V162.667H243.484V135.555Z" fill="#FFF200"/>
<path d="M243.484 108.443V135.555H270.614H297.744V108.443H270.614H243.484Z" fill="#FFF200"/>
<path d="M216.354 108.443H189.224V135.555H216.354V108.443Z" fill="#FFF200"/>
<path d="M216.354 108.443H243.484V81.3352V54.2235H216.354V81.3352V108.443Z" fill="#FFF200"/>
<path d="M189.224 135.555H176V162.667H189.224V135.555Z" fill="#FFF200"/>
<path d="M189.224 108.443V81.3352V54.2235H176V108.443H189.224Z" fill="#FFF200"/>
<path d="M243.484 216.89V244.002H270.614H297.744V216.89H270.614H243.484Z" fill="#FFF200"/>
<path d="M216.354 216.89H189.224V244.002H216.354V216.89Z" fill="#FFF200"/>
<path d="M243.484 189.778H216.354V216.89H243.484V189.778Z" fill="#FFF200"/>
<path d="M189.224 189.778H176V216.89H189.224V189.778Z" fill="#FFF200"/>
<path d="M297.744 54.2235V27.1117L297.74 0H270.614H243.484V27.1117V54.2235H270.614H297.744Z" fill="#FFF200"/>
<path d="M216.354 27.1117V0H189.224V27.1117V54.2235H216.354V27.1117Z" fill="#FFF200"/>
<path d="M189.224 324.888V325.208V352H216.354V325.208V324.888V298.225H243.484V324.888V325.208V352H270.614H297.744V325.208V324.888V298.225H324.87H352V271.114V244.002H324.87H297.744V271.114V298.097H270.614H243.484V271.114V244.002H216.354V271.114V298.097H189.224V271.114V244.002H176V298.225H189.224V324.888Z" fill="#FFF200"/>
</g>
<defs>
<clipPath id="clip0_172_629">
<rect width="352" height="352" fill="white"/>
</clipPath>
</defs>
</svg>
