<svg width="82" height="69" viewBox="0 0 82 69" fill="none" xmlns="http://www.w3.org/2000/svg">
<path d="M65.8729 68.5371L81.7158 68.5371L81.7158 52.6916L65.8729 52.6916L65.8729 68.5371Z" fill="#FFF200"/>
<path d="M0.00175667 68.5371L15.8447 68.5371L15.8447 52.6916L0.00175736 52.6916L0.00175667 68.5371Z" fill="#FFF200"/>
<path d="M65.8728 15.8457L81.7158 15.8457L81.7158 0.000159264L65.8728 0.000158571L65.8728 15.8457Z" fill="#FFF200"/>
<path d="M33.0018 68.5371L48.8447 68.5371L48.8447 52.6916L33.0018 52.6916L33.0018 68.5371Z" fill="#FFF200"/>
<path d="M32.9998 15.8457L48.8428 15.8457L48.8428 0.000156403L32.9998 0.00015571L32.9998 15.8457Z" fill="#FFF200"/>
<path d="M-0.000200272 15.8457L15.8428 15.8457L15.8428 0.000156403L-0.000199579 0.00015571L-0.000200272 15.8457Z" fill="#FFF200"/>
</svg>
