<svg width="83" height="70" viewBox="0 0 83 70" fill="none" xmlns="http://www.w3.org/2000/svg">
<path d="M60.8276 6.18359C60.7588 6.56671 61.0193 6.42088 61.2576 6.43406C65.7593 6.68205 66.924 9.64479 68.9414 13.1101C71.003 16.652 72.615 18.5594 71.2873 22.8988C70.4018 25.7924 68.9553 29.8476 67.7349 32.5978C67.1444 33.9292 66.3122 34.978 64.9328 35.5391C62.9425 36.349 58.4645 36.0474 56.1531 36.1001C53.6852 36.1562 50.2156 36.5376 47.8271 36.2196C45.2716 35.8802 44.432 33.7422 43.6433 31.6635C42.6342 29.0031 41.6381 26.1368 40.7486 23.4319C39.2669 18.9268 38.8287 17.719 42.3991 14.257C44.7842 11.9443 49.3219 7.39719 52.3386 6.46784C52.5491 6.40275 52.8104 6.55517 52.7351 6.18359H60.8276Z" fill="#FFF200"/>
<path d="M11.8736 37.7708C12.8565 37.7131 13.8844 37.9388 14.8288 38.2297C19.9718 39.814 25.1771 42.5914 30.3209 44.31C32.7397 45.4586 33.2049 46.7076 32.2876 49.2847C30.5519 54.1614 27.8899 58.9647 26.1133 63.8578C25.5637 65.2255 24.2679 66.3501 22.7797 66.5141C21.6387 66.6401 17.2935 65.485 16.064 65.0311C13.1022 63.9378 12.1177 61.9448 10.7957 59.3116C8.66361 55.0652 5.8132 49.8293 4.11934 45.4932C2.90874 42.3945 4.29544 41.3382 6.7101 39.8404C8.2901 38.86 9.97086 37.8836 11.8736 37.7716V37.7708Z" fill="#FFF200"/>
<path d="M66.525 37.8902C69.8447 37.4329 70.4034 39.3402 71.3789 41.9586C71.7098 42.8467 71.9965 43.7744 72.284 44.6791C73.3717 48.0933 75.0164 52.0002 73.0809 55.3757C72.2299 56.8596 67.5366 62.8526 66.2948 63.8256C62.8514 66.5247 57.0507 63.8627 54.9538 60.4773C52.4728 56.4699 50.598 51.7514 48.1047 47.7094C47.3167 45.7131 47.7 44.4467 49.6257 43.5594C54.7425 41.2031 61.2305 40.0158 66.5242 37.891L66.525 37.8902Z" fill="#FFF200"/>
<path d="M14.6771 28.0002C15.1857 26.864 14.7647 24.0051 14.8819 22.5163C15.1137 19.5684 16.8559 18.5896 19.3688 17.7641C22.8376 16.6238 27.2606 15.2775 30.7966 14.4825C32.9344 14.0013 34.4669 14.2946 35.8012 16.1377C39.56 21.3274 36.0396 29.091 35.4916 34.8533C34.9019 36.7986 33.3497 37.648 31.3774 37.6126C26.9691 37.0251 22.1848 37.3226 17.8125 36.7302C16.2104 36.5127 15.035 35.6113 14.6714 34.0047C14.546 33.4527 14.5501 28.2828 14.6771 28.001V28.0002Z" fill="#FFF200"/>
<path d="M40.7206 52.6992C41.1891 52.6992 41.6789 52.8772 42.0303 53.1911C44.1296 55.4148 46.4148 57.4704 48.5051 59.7007C49.393 60.6482 50.9738 62.1493 51.3703 63.33C52.191 65.7728 50.6962 67.8367 48.1955 68.0344C45.056 68.2816 41.8591 67.8375 38.7343 67.7741C35.9625 67.718 32.6928 68.0361 30.0095 67.784C29.1208 67.7007 28.6113 67.3662 28.8906 66.3982C32.1055 62.048 35.6546 57.9137 38.9768 53.631C39.4674 53.1211 39.9777 52.6984 40.7214 52.7L40.7206 52.6992Z" fill="#FFF200"/>
</svg>
