<svg width="162" height="37" viewBox="0 0 162 37" fill="none" xmlns="http://www.w3.org/2000/svg">
<path d="M13.4888 0L0 18.9252L13.4888 37L27 18.9252L13.4888 0Z" fill="#FFF200"/>
<path d="M40.4888 0L27 18.9252L40.4888 37L54 18.9252L40.4888 0Z" fill="#FFF200"/>
<path d="M67.4888 0L54 18.9252L67.4888 37L81 18.9252L67.4888 0Z" fill="#FFF200"/>
<path d="M94.4888 0L81 18.9252L94.4888 37L108 18.9252L94.4888 0Z" fill="#FFF200"/>
<path d="M121.489 0L108 18.9252L121.489 37L135 18.9252L121.489 0Z" fill="#FFF200"/>
<path d="M148.489 0L135 18.9252L148.489 37L162 18.9252L148.489 0Z" fill="#FFF200"/>
</svg>
