<svg width="80" height="48" viewBox="0 0 80 48" fill="none" xmlns="http://www.w3.org/2000/svg">
<path d="M63.3838 15.843V0L47.5382 0V15.843L63.3838 15.843Z" fill="#FFF200"/>
<path d="M31.6904 15.843V0L15.8449 0L15.8449 15.843L31.6904 15.843Z" fill="#FFF200"/>
<path d="M79.2295 31.6613V15.8184L63.384 15.8184V31.6613H79.2295Z" fill="#FFF200"/>
<path d="M47.5361 31.6613V15.8184L31.6906 15.8184V31.6613H47.5361Z" fill="#FFF200"/>
<path d="M15.8457 31.6613L15.8457 15.8184L0.000159264 15.8184L0.000159264 31.6613H15.8457Z" fill="#FFF200"/>
<path d="M79.2295 47.5305V31.6875H63.3839V47.5305H79.2295Z" fill="#FFF200"/>
<path d="M47.5361 47.5285V31.6855H31.6906V47.5285H47.5361Z" fill="#FFF200"/>
<path d="M15.8457 47.5305L15.8457 31.6875H0.000156403L0.000156403 47.5305H15.8457Z" fill="#FFF200"/>
</svg>
