<svg width="232" height="214" viewBox="0 0 232 214" fill="none" xmlns="http://www.w3.org/2000/svg">
<g clip-path="url(#clip0_172_607)">
<path d="M142.769 17.8442V0L124.924 0V17.8442H142.769Z" fill="black"/>
<path d="M107.076 17.8442V0L89.2309 0V17.8442H107.076Z" fill="black"/>
<path d="M160.615 35.6616V17.8174H142.769V35.6616H160.615Z" fill="black"/>
<path d="M124.922 35.6598V17.8156H107.076V35.6598H124.922Z" fill="black"/>
<path d="M89.2309 35.6616V17.8174H71.3855V35.6616H89.2309Z" fill="black"/>
<path d="M160.615 53.5344V35.6902H142.769V53.5344H160.615Z" fill="black"/>
<path d="M124.922 53.5326V35.6884H107.076V53.5326H124.922Z" fill="black"/>
<path d="M89.2309 53.5343V35.6902H71.3855V53.5343H89.2309Z" fill="black"/>
<path d="M178.462 71.2393V53.3951H160.616V71.2393H178.462Z" fill="black"/>
<path d="M196.307 71.2393V53.3951H178.462V71.2393H196.307Z" fill="black"/>
<path d="M71.3854 71.2393V53.3951H53.54V71.2393H71.3854Z" fill="black"/>
<path d="M53.5382 71.2393V53.3951H35.6927V71.2393H53.5382Z" fill="black"/>
<path d="M178.46 89.0567V71.2125H160.615V89.0567H178.46Z" fill="black"/>
<path d="M196.307 89.0567V71.2125H178.462V89.0567H196.307Z" fill="black"/>
<path d="M71.3837 89.0567V71.2125H53.5382V89.0567H71.3837Z" fill="black"/>
<path d="M53.5382 89.0567V71.2125H35.6927V89.0567H53.5382Z" fill="black"/>
<path d="M232 106.93V89.0853H214.155V106.93H232Z" fill="black"/>
<path d="M214.153 106.928V89.0835H196.307V106.928H214.153Z" fill="black"/>
<path d="M35.6927 106.928V89.0835H17.8473V106.928H35.6927Z" fill="black"/>
<path d="M17.8455 106.929V89.0853H5.34058e-05V106.929H17.8455Z" fill="black"/>
<path d="M232 124.802V106.958H214.155V124.802H232Z" fill="black"/>
<path d="M214.153 124.8V106.956H196.307V124.8H214.153Z" fill="black"/>
<path d="M35.6927 124.8V106.956H17.8473V124.8H35.6927Z" fill="black"/>
<path d="M17.8455 124.802V106.958H4.95911e-05V124.802H17.8455Z" fill="black"/>
<path d="M142.769 142.62V124.776H124.924V142.62H142.769Z" fill="black"/>
<path d="M107.076 142.618V124.774H89.2308V142.618H107.076Z" fill="black"/>
<path d="M160.615 160.491V142.646H142.769V160.491H160.615Z" fill="black"/>
<path d="M124.922 160.491V142.646H107.076V160.491H124.922Z" fill="black"/>
<path d="M89.2309 160.492V142.648H71.3854V160.492H89.2309Z" fill="black"/>
<path d="M142.769 178.308V160.464H124.924V178.308H142.769Z" fill="black"/>
<path d="M107.078 178.308V160.464H89.2327V178.308H107.078Z" fill="black"/>
<path d="M160.616 196.126V178.281H142.771V196.126H160.616Z" fill="black"/>
<path d="M124.924 196.124V178.279H107.078V196.124H124.924Z" fill="black"/>
<path d="M89.2309 196.126V178.281H71.3854V196.126H89.2309Z" fill="black"/>
<path d="M142.769 213.998V196.154H124.924V213.998H142.769Z" fill="black"/>
<path d="M107.078 213.998V196.154H89.2327V213.998H107.078Z" fill="black"/>
</g>
<defs>
<clipPath id="clip0_172_607">
<rect width="232" height="214" fill="white"/>
</clipPath>
</defs>
</svg>
